800 0 1 0           
15 SolidWorks 2008 12 ACIS 17.0 NT 24 Sat Jul 19 15:29:41 2008 
25.399999999999999 9.9999999999999995e-007 1e-010 
-0 body $1 -1 $-1 $2 $-1 $-1 F #
-1 name_attrib-gen-attrib $-1 -1 $-1 $-1 $0 keep keep_kept ignore copy @36 2DE86EE6-50C5-4408-904F-8401638C6D48 #
-2 lump $3 -1 $-1 $-1 $4 $0 F #
-3 rgb_color-st-attrib $-1 -1 $-1 $-1 $2 0.25098039215686274 0.25098039215686274 0.25098039215686274 #
-4 shell $-1 -1 $-1 $-1 $-1 $5 $-1 $2 F #
-5 face $-1 -1 $-1 $6 $7 $4 $-1 $8 reversed single F #
-6 face $-1 -1 $-1 $9 $10 $4 $-1 $11 forward single F #
-7 loop $-1 -1 $-1 $-1 $12 $5 F #
-8 cone-surface $-1 -1 $-1 2.0029010227862793e-015 -0.48999999999999999 0.20000000000000001 -4.087553107727101e-015 1 0 -0.12499999999999992 -4.7807339889124601e-016 0 1 I I 0 1 0.12499999999999992 forward I I I I #
-9 face $-1 -1 $-1 $13 $14 $4 $-1 $15 reversed single F #
-10 loop $-1 -1 $-1 $-1 $16 $6 F #
-11 cone-surface $-1 -1 $-1 0.20049999999999696 -0.079769031557681655 0.48999999999999999 -0 -0 -1 -0.015000000000000386 0 0 1 I I 0 1 0.015000000000000386 forward I I I I #
-12 coedge $-1 -1 $-1 $17 $18 $19 $20 reversed $7 $-1 #
-13 face $-1 -1 $-1 $21 $22 $4 $-1 $23 forward single F #
-14 loop $-1 -1 $-1 $-1 $24 $9 F #
-15 plane-surface $-1 -1 $-1 0.21549999999999719 -0.015000000000000796 0.48999999999999999 -1 0 0 0 0 39.370078740157481 forward_v I I I I #
-16 coedge $-1 -1 $-1 $25 $26 $27 $28 forward $10 $-1 #
-17 coedge $-1 -1 $-1 $29 $12 $30 $31 forward $7 $-1 #
-18 coedge $-1 -1 $-1 $12 $29 $32 $33 reversed $7 $-1 #
-19 coedge $-1 -1 $-1 $34 $34 $12 $20 forward $35 $-1 #
-20 edge $-1 -1 $-1 $36 1.5707963267948966 $37 4.7123889803846897 $19 $38 forward @7 unknown F #
-21 face $-1 -1 $-1 $39 $40 $4 $-1 $41 reversed single F #
-22 loop $-1 -1 $-1 $-1 $42 $13 F #
-23 cone-surface $-1 -1 $-1 0.2004999999999964 -0.015000000000000796 0.48999999999999999 -0 -0 -1 -0.015000000000000796 0 0 1 I I 0 1 0.015000000000000796 forward I I I I #
-24 coedge $-1 -1 $-1 $43 $44 $45 $46 forward $14 $-1 #
-25 coedge $-1 -1 $-1 $47 $16 $44 $48 reversed $10 $-1 #
-26 coedge $-1 -1 $-1 $16 $47 $49 $50 forward $10 $-1 #
-27 coedge $-1 -1 $-1 $51 $45 $16 $28 reversed $52 $-1 #
-28 edge $-1 -1 $-1 $53 -0.72989965815166591 $54 0 $16 $55 forward @7 unknown F #
-29 coedge $-1 -1 $-1 $18 $17 $56 $57 forward $7 $-1 #
-30 coedge $-1 -1 $-1 $58 $59 $17 $31 reversed $60 $-1 #
-31 edge $-1 -1 $-1 $36 0.0081025999999999616 $61 0.012445999999999999 $17 $62 forward @7 unknown F #
-32 coedge $-1 -1 $-1 $59 $58 $18 $33 forward $60 $-1 #
-33 edge $-1 -1 $-1 $37 0.0081025999999999859 $63 0.012445999999999999 $32 $64 forward @7 unknown F #
-34 coedge $-1 -1 $-1 $19 $19 $58 $65 forward $35 $-1 #
-35 loop $-1 -1 $-1 $66 $34 $67 F #
-36 vertex $-1 -1 $-1 $31 $68 #
-37 vertex $-1 -1 $-1 $20 $69 #
-38 ellipse-curve $-1 -1 $-1 6.9897158142133813e-016 -0.17100000000000098 0.20000000000000001 0 1 0 0 0 0.12499999999999993 1 I I #
-39 face $-1 -1 $-1 $70 $71 $4 $-1 $72 forward single F #
-40 loop $-1 -1 $-1 $73 $74 $21 F #
-41 plane-surface $-1 -1 $-1 -0.20049999999999912 0 0.48999999999999999 0 -1 0 0 0 -39.370078740157481 forward_v I I I I #
-42 coedge $-1 -1 $-1 $75 $76 $77 $78 forward $22 $-1 #
-43 coedge $-1 -1 $-1 $79 $24 $76 $80 reversed $14 $-1 #
-44 coedge $-1 -1 $-1 $24 $79 $25 $48 forward $14 $-1 #
-45 coedge $-1 -1 $-1 $27 $77 $24 $46 reversed $52 $-1 #
-46 edge $-1 -1 $-1 $54 -0.0016451334015650939 $81 0 $24 $82 forward @7 unknown F #
-47 coedge $-1 -1 $-1 $26 $25 $83 $84 reversed $10 $-1 #
-48 edge $-1 -1 $-1 $85 -0 $54 0.012445999999999999 $44 $86 forward @7 unknown F #
-49 coedge $-1 -1 $-1 $87 $88 $26 $50 reversed $89 $-1 #
-50 edge $-1 -1 $-1 $90 -0 $53 0.012445999999999999 $26 $91 forward @7 unknown F #
-51 coedge $-1 -1 $-1 $92 $27 $88 $93 reversed $52 $-1 #
-52 loop $-1 -1 $-1 $-1 $27 $94 F #
-53 vertex $-1 -1 $-1 $93 $95 #
-54 vertex $-1 -1 $-1 $46 $96 #
-55 ellipse-curve $-1 -1 $-1 0.20049999999999696 -0.079769031557681655 0 0 0 1 0.015000000000000386 0 0 1 I I #
-56 coedge $-1 -1 $-1 $74 $74 $29 $57 reversed $40 $-1 #
-57 edge $-1 -1 $-1 $61 -3.1415926535897931 $63 0 $29 $97 forward @7 unknown F #
-58 coedge $-1 -1 $-1 $32 $30 $34 $65 reversed $60 $-1 #
-59 coedge $-1 -1 $-1 $30 $32 $74 $98 forward $60 $-1 #
-60 loop $-1 -1 $-1 $-1 $30 $99 F #
-61 vertex $-1 -1 $-1 $31 $100 #
-62 straight-curve $-1 -1 $-1 0.12500000000000192 -0.48999999999999949 0.20000000000000001 -1.6092728770579137e-013 39.370078740157481 0 I I #
-63 vertex $-1 -1 $-1 $57 $101 #
-64 straight-curve $-1 -1 $-1 -0.12499999999999792 -0.49000000000000044 0.20000000000000001 -1.6092728770579137e-013 39.370078740157481 0 I I #
-65 edge $-1 -1 $-1 $37 -1.5707963267948966 $36 1.5707963267948966 $34 $102 forward @7 unknown F #
-66 loop $-1 -1 $-1 $-1 $103 $67 F #
-67 face $-1 -1 $-1 $104 $35 $4 $-1 $105 reversed single F #
-68 point $-1 -1 $-1 0.12500000000000061 -0.17100000000000098 0.20000000000000001 #
-69 point $-1 -1 $-1 -0.12499999999999921 -0.17100000000000098 0.20000000000000001 #
-70 face $-1 -1 $-1 $106 $107 $4 $-1 $108 reversed single F #
-71 loop $-1 -1 $-1 $-1 $109 $39 F #
-72 cone-surface $-1 -1 $-1 -0.20049999999999912 -0.015000000000000249 0.48999999999999999 -0 -0 -1 -0.015000000000000523 0 0 1 I I 0 1 0.015000000000000523 forward I I I I #
-73 loop $-1 -1 $-1 $-1 $110 $21 F #
-74 coedge $-1 -1 $-1 $56 $56 $59 $98 reversed $40 $-1 #
-75 coedge $-1 -1 $-1 $111 $42 $112 $113 reversed $22 $-1 #
-76 coedge $-1 -1 $-1 $42 $111 $43 $80 forward $22 $-1 #
-77 coedge $-1 -1 $-1 $45 $114 $42 $78 reversed $52 $-1 #
-78 edge $-1 -1 $-1 $81 0 $115 1.5707963267947154 $42 $116 forward @7 unknown F #
-79 coedge $-1 -1 $-1 $44 $43 $117 $118 reversed $14 $-1 #
-80 edge $-1 -1 $-1 $119 -0 $81 0.012445999999999999 $76 $120 forward @7 unknown F #
-81 vertex $-1 -1 $-1 $46 $121 #
-82 straight-curve $-1 -1 $-1 0.21549999999999719 -0.015000000000000796 0 0 39.370078740157481 0 I I #
-83 coedge $-1 -1 $-1 $117 $122 $47 $84 forward $123 $-1 #
-84 edge $-1 -1 $-1 $90 -0.72989965815166591 $85 0 $83 $124 forward @7 unknown F #
-85 vertex $-1 -1 $-1 $118 $125 #
-86 straight-curve $-1 -1 $-1 0.21549999999999719 -0.079769031557681655 0.48999999999999999 -0 -0 -39.370078740157481 I I #
-87 coedge $-1 -1 $-1 $126 $49 $122 $127 reversed $89 $-1 #
-88 coedge $-1 -1 $-1 $49 $126 $51 $93 forward $89 $-1 #
-89 loop $-1 -1 $-1 $-1 $88 $128 F #
-90 vertex $-1 -1 $-1 $127 $129 #
-91 straight-curve $-1 -1 $-1 0.21167861970287447 -0.089770954449728629 0.48999999999999999 -0 -0 -39.370078740157481 I I #
-92 coedge $-1 -1 $-1 $130 $51 $131 $132 reversed $52 $-1 #
-93 edge $-1 -1 $-1 $133 0 $53 0.0025981739918256633 $88 $134 forward @7 unknown F #
-94 face $-1 -1 $-1 $99 $52 $4 $-1 $135 reversed single F #
-95 point $-1 -1 $-1 0.21167861970287447 -0.089770954449728629 0 #
-96 point $-1 -1 $-1 0.21549999999999719 -0.079769031557681655 0 #
-97 ellipse-curve $-1 -1 $-1 0 0 0.20000000000000001 -4.087553107727101e-015 1 0 -0.12499999999999992 -5.1094413846588723e-016 0 1 I I #
-98 edge $-1 -1 $-1 $63 0 $61 3.1415926535897931 $59 $136 forward @7 unknown F #
-99 face $-1 -1 $-1 $-1 $60 $4 $-1 $137 reversed single F #
-100 point $-1 -1 $-1 0.12499999999999992 5.1094413846588723e-016 0.20000000000000001 #
-101 point $-1 -1 $-1 -0.12499999999999992 -5.1094413846588723e-016 0.20000000000000001 #
-102 ellipse-curve $-1 -1 $-1 6.9897158142133813e-016 -0.17100000000000098 0.20000000000000001 0 1 0 0 0 0.12499999999999993 1 I I #
-103 coedge $-1 -1 $-1 $138 $139 $130 $140 forward $66 $-1 #
-104 face $-1 -1 $-1 $128 $141 $4 $-1 $142 forward single F #
-105 plane-surface $-1 -1 $-1 -0.132293344025295 -0.17100000000000098 0.48999999999999999 0 1 0 0 0 39.370078740157481 forward_v I I I I #
-106 face $-1 -1 $-1 $143 $144 $4 $-1 $145 forward single F #
-107 loop $-1 -1 $-1 $-1 $146 $70 F #
-108 plane-surface $-1 -1 $-1 -0.21549999999999994 -0.015000000000000249 0.48999999999999999 1 0 0 0 0 -39.370078740157481 forward_v I I I I #
-109 coedge $-1 -1 $-1 $147 $148 $149 $150 forward $71 $-1 #
-110 coedge $-1 -1 $-1 $151 $112 $114 $152 forward $73 $-1 #
-111 coedge $-1 -1 $-1 $76 $75 $153 $154 reversed $22 $-1 #
-112 coedge $-1 -1 $-1 $110 $155 $75 $113 forward $73 $-1 #
-113 edge $-1 -1 $-1 $156 -0 $115 0.012445999999999999 $112 $157 forward @7 unknown F #
-114 coedge $-1 -1 $-1 $77 $149 $110 $152 reversed $52 $-1 #
-115 vertex $-1 -1 $-1 $78 $158 #
-116 ellipse-curve $-1 -1 $-1 0.2004999999999964 -0.015000000000000796 0 0 0 1 0.015000000000000796 0 0 1 I I #
-117 coedge $-1 -1 $-1 $153 $83 $79 $118 forward $123 $-1 #
-118 edge $-1 -1 $-1 $85 -0.0016451334015650939 $119 0 $117 $159 forward @7 unknown F #
-119 vertex $-1 -1 $-1 $118 $160 #
-120 straight-curve $-1 -1 $-1 0.21549999999999719 -0.015000000000000796 0.48999999999999999 -0 -0 -39.370078740157481 I I #
-121 point $-1 -1 $-1 0.21549999999999719 -0.015000000000000796 0 #
-122 coedge $-1 -1 $-1 $83 $161 $87 $127 forward $123 $-1 #
-123 loop $-1 -1 $-1 $-1 $83 $162 F #
-124 ellipse-curve $-1 -1 $-1 0.20049999999999696 -0.079769031557681655 0.48999999999999999 0 0 1 0.015000000000000386 0 0 1 I I #
-125 point $-1 -1 $-1 0.21549999999999719 -0.079769031557681655 0.48999999999999999 #
-126 coedge $-1 -1 $-1 $88 $87 $163 $164 forward $89 $-1 #
-127 edge $-1 -1 $-1 $165 0 $90 0.0025981739918256633 $122 $166 forward @7 unknown F #
-128 face $-1 -1 $-1 $162 $89 $4 $-1 $167 reversed single F #
-129 point $-1 -1 $-1 0.21167861970287447 -0.089770954449728629 0.48999999999999999 #
-130 coedge $-1 -1 $-1 $168 $92 $103 $140 reversed $52 $-1 #
-131 coedge $-1 -1 $-1 $163 $169 $92 $132 forward $141 $-1 #
-132 edge $-1 -1 $-1 $170 -1.5707963267948966 $133 -0.72989965815166236 $131 $171 forward @7 unknown F #
-133 vertex $-1 -1 $-1 $132 $172 #
-134 straight-curve $-1 -1 $-1 0.14347196372816759 -0.16600192289204771 0 26.251766120859351 29.34020919390149 0 I I #
-135 plane-surface $-1 -1 $-1 0.20049999999999696 -0.079769031557681655 0 0 0 1 39.370078740157481 0 0 forward_v I I I I #
-136 ellipse-curve $-1 -1 $-1 0 0 0.20000000000000001 -4.087553107727101e-015 1 0 -0.12499999999999992 -5.1094413846588723e-016 0 1 I I #
-137 cone-surface $-1 -1 $-1 2.0029010227862793e-015 -0.48999999999999999 0.20000000000000001 -4.087553107727101e-015 1 0 -0.12499999999999992 -4.7807339889124601e-016 0 1 I I 0 1 0.12499999999999992 forward I I I I #
-138 coedge $-1 -1 $-1 $173 $103 $169 $174 reversed $66 $-1 #
-139 coedge $-1 -1 $-1 $103 $173 $175 $176 forward $66 $-1 #
-140 edge $-1 -1 $-1 $177 0 $170 0.0067205018764848745 $103 $178 forward @7 unknown F #
-141 loop $-1 -1 $-1 $-1 $131 $104 F #
-142 cone-surface $-1 -1 $-1 0.13229334402529061 -0.15600000000000128 0.48999999999999999 -0 -0 -1 -0.01499999999999972 0 0 1 I I 0 1 0.01499999999999972 forward I I I I #
-143 face $-1 -1 $-1 $179 $180 $4 $-1 $181 reversed single F #
-144 loop $-1 -1 $-1 $-1 $182 $106 F #
-145 cone-surface $-1 -1 $-1 -0.20049999999999968 -0.0797690315576811 0.48999999999999999 -0 -0 -1 -0.015000000000000182 0 0 1 I I 0 1 0.015000000000000182 forward I I I I #
-146 coedge $-1 -1 $-1 $183 $184 $185 $186 forward $107 $-1 #
-147 coedge $-1 -1 $-1 $187 $109 $184 $188 reversed $71 $-1 #
-148 coedge $-1 -1 $-1 $109 $187 $151 $189 forward $71 $-1 #
-149 coedge $-1 -1 $-1 $114 $185 $109 $150 reversed $52 $-1 #
-150 edge $-1 -1 $-1 $190 1.5707963267948966 $191 3.1415926535897931 $109 $192 forward @7 unknown F #
-151 coedge $-1 -1 $-1 $155 $110 $148 $189 reversed $73 $-1 #
-152 edge $-1 -1 $-1 $115 -0.010185399999999956 $190 -0 $110 $193 forward @7 unknown F #
-153 coedge $-1 -1 $-1 $194 $117 $111 $154 forward $123 $-1 #
-154 edge $-1 -1 $-1 $119 0 $156 1.5707963267947154 $153 $195 forward @7 unknown F #
-155 coedge $-1 -1 $-1 $112 $151 $194 $196 reversed $73 $-1 #
-156 vertex $-1 -1 $-1 $154 $197 #
-157 straight-curve $-1 -1 $-1 0.20049999999999912 0 0.48999999999999999 -0 -0 -39.370078740157481 I I #
-158 point $-1 -1 $-1 0.20049999999999912 0 0 #
-159 straight-curve $-1 -1 $-1 0.21549999999999719 -0.015000000000000796 0.48999999999999999 0 39.370078740157481 0 I I #
-160 point $-1 -1 $-1 0.21549999999999719 -0.015000000000000796 0.48999999999999999 #
-161 coedge $-1 -1 $-1 $122 $198 $199 $200 forward $123 $-1 #
-162 face $-1 -1 $-1 $94 $123 $4 $-1 $201 forward single F #
-163 coedge $-1 -1 $-1 $199 $131 $126 $164 reversed $141 $-1 #
-164 edge $-1 -1 $-1 $165 -0 $133 0.012445999999999999 $126 $202 forward @7 unknown F #
-165 vertex $-1 -1 $-1 $200 $203 #
-166 straight-curve $-1 -1 $-1 0.14347196372816759 -0.16600192289204771 0.48999999999999999 26.251766120859351 29.34020919390149 0 I I #
-167 plane-surface $-1 -1 $-1 0.14347196372816759 -0.16600192289204771 0.48999999999999999 -0.74524131352509781 0.66679485946982753 0 -26.251766120859351 -29.34020919390149 0 forward_v I I I I #
-168 coedge $-1 -1 $-1 $204 $130 $205 $206 reversed $52 $-1 #
-169 coedge $-1 -1 $-1 $131 $199 $138 $174 forward $141 $-1 #
-170 vertex $-1 -1 $-1 $140 $207 #
-171 ellipse-curve $-1 -1 $-1 0.13229334402529061 -0.15600000000000128 0 0 0 1 0.01499999999999972 0 0 1 I I #
-172 point $-1 -1 $-1 0.14347196372816759 -0.16600192289204771 0 #
-173 coedge $-1 -1 $-1 $139 $138 $198 $208 reversed $66 $-1 #
-174 edge $-1 -1 $-1 $209 -0 $170 0.012445999999999999 $169 $210 forward @7 unknown F #
-175 coedge $-1 -1 $-1 $211 $205 $139 $176 reversed $212 $-1 #
-176 edge $-1 -1 $-1 $213 -0 $177 0.012445999999999999 $139 $214 forward @7 unknown F #
-177 vertex $-1 -1 $-1 $206 $215 #
-178 straight-curve $-1 -1 $-1 -0.132293344025295 -0.17100000000000098 0 39.370078740157481 0 0 I I #
-179 face $-1 -1 $-1 $67 $212 $4 $-1 $216 forward single F #
-180 loop $-1 -1 $-1 $-1 $217 $143 F #
-181 plane-surface $-1 -1 $-1 -0.14347196372817142 -0.16600192289204826 0.48999999999999999 0.74524131352511058 0.66679485946981321 0 -26.25176612085879 29.340209193901991 0 forward_v I I I I #
-182 coedge $-1 -1 $-1 $218 $219 $220 $221 forward $144 $-1 #
-183 coedge $-1 -1 $-1 $222 $146 $219 $223 reversed $107 $-1 #
-184 coedge $-1 -1 $-1 $146 $222 $147 $188 forward $107 $-1 #
-185 coedge $-1 -1 $-1 $149 $220 $146 $186 reversed $52 $-1 #
-186 edge $-1 -1 $-1 $191 -4.4061976289810898e-020 $224 0.0016451334015650935 $146 $225 forward @7 unknown F #
-187 coedge $-1 -1 $-1 $148 $147 $226 $227 reversed $71 $-1 #
-188 edge $-1 -1 $-1 $228 -0 $191 0.012445999999999999 $184 $229 forward @7 unknown F #
-189 edge $-1 -1 $-1 $230 -0 $190 0.012445999999999999 $148 $231 forward @7 unknown F #
-190 vertex $-1 -1 $-1 $152 $232 #
-191 vertex $-1 -1 $-1 $150 $233 #
-192 ellipse-curve $-1 -1 $-1 -0.20049999999999912 -0.015000000000000249 0 0 0 1 0.015000000000000523 0 0 1 I I #
-193 straight-curve $-1 -1 $-1 -0.20049999999999912 0 0 -39.370078740157481 -0 -0 I I #
-194 coedge $-1 -1 $-1 $226 $153 $155 $196 forward $123 $-1 #
-195 ellipse-curve $-1 -1 $-1 0.2004999999999964 -0.015000000000000796 0.48999999999999999 0 0 1 0.015000000000000796 0 0 1 I I #
-196 edge $-1 -1 $-1 $156 -0.010185399999999956 $230 -0 $194 $234 forward @7 unknown F #
-197 point $-1 -1 $-1 0.20049999999999912 0 0.48999999999999999 #
-198 coedge $-1 -1 $-1 $161 $235 $173 $208 forward $123 $-1 #
-199 coedge $-1 -1 $-1 $169 $163 $161 $200 reversed $141 $-1 #
-200 edge $-1 -1 $-1 $209 -1.5707963267948966 $165 -0.72989965815166236 $161 $236 forward @7 unknown F #
-201 plane-surface $-1 -1 $-1 0.20049999999999696 -0.079769031557681655 0.48999999999999999 0 0 1 39.370078740157481 0 0 forward_v I I I I #
-202 straight-curve $-1 -1 $-1 0.14347196372816759 -0.16600192289204771 0.48999999999999999 -0 -0 -39.370078740157481 I I #
-203 point $-1 -1 $-1 0.14347196372816759 -0.16600192289204771 0.48999999999999999 #
-204 coedge $-1 -1 $-1 $220 $168 $217 $237 reversed $52 $-1 #
-205 coedge $-1 -1 $-1 $175 $238 $168 $206 forward $212 $-1 #
-206 edge $-1 -1 $-1 $239 -2.4116929954381066 $177 -1.5707963267948966 $205 $240 forward @7 unknown F #
-207 point $-1 -1 $-1 0.13229334402529061 -0.17100000000000098 0 #
-208 edge $-1 -1 $-1 $213 0 $209 0.0067205018764848745 $198 $241 forward @7 unknown F #
-209 vertex $-1 -1 $-1 $208 $242 #
-210 straight-curve $-1 -1 $-1 0.13229334402529061 -0.17100000000000098 0.48999999999999999 -0 -0 -39.370078740157481 I I #
-211 coedge $-1 -1 $-1 $238 $175 $235 $243 reversed $212 $-1 #
-212 loop $-1 -1 $-1 $-1 $205 $179 F #
-213 vertex $-1 -1 $-1 $243 $244 #
-214 straight-curve $-1 -1 $-1 -0.132293344025295 -0.17100000000000107 0.48999999999999999 -0 -0 -39.370078740157481 I I #
-215 point $-1 -1 $-1 -0.132293344025295 -0.17100000000000107 0 #
-216 cone-surface $-1 -1 $-1 -0.132293344025295 -0.15600000000000183 0.48999999999999999 -0 -0 -1 -0.014999999999999243 0 0 1 I I 0 1 0.014999999999999243 forward I I I I #
-217 coedge $-1 -1 $-1 $245 $246 $204 $237 forward $180 $-1 #
-218 coedge $-1 -1 $-1 $247 $182 $246 $248 reversed $144 $-1 #
-219 coedge $-1 -1 $-1 $182 $247 $183 $223 forward $144 $-1 #
-220 coedge $-1 -1 $-1 $185 $204 $182 $221 reversed $52 $-1 #
-221 edge $-1 -1 $-1 $224 -3.1415926535897931 $249 -2.4116929954381048 $182 $250 forward @7 unknown F #
-222 coedge $-1 -1 $-1 $184 $183 $251 $252 reversed $107 $-1 #
-223 edge $-1 -1 $-1 $253 -0 $224 0.012445999999999999 $219 $254 forward @7 unknown F #
-224 vertex $-1 -1 $-1 $186 $255 #
-225 straight-curve $-1 -1 $-1 -0.21549999999999994 -0.015000000000000249 0 0 -39.370078740157481 0 I I #
-226 coedge $-1 -1 $-1 $251 $194 $187 $227 forward $123 $-1 #
-227 edge $-1 -1 $-1 $230 1.5707963267948966 $228 3.1415926535897931 $226 $256 forward @7 unknown F #
-228 vertex $-1 -1 $-1 $227 $257 #
-229 straight-curve $-1 -1 $-1 -0.21549999999999966 -0.015000000000000248 0.48999999999999999 -0 -0 -39.370078740157481 I I #
-230 vertex $-1 -1 $-1 $196 $258 #
-231 straight-curve $-1 -1 $-1 -0.20049999999999912 0 0.48999999999999999 -0 -0 -39.370078740157481 I I #
-232 point $-1 -1 $-1 -0.20049999999999912 0 0 #
-233 point $-1 -1 $-1 -0.21549999999999966 -0.015000000000000248 0 #
-234 straight-curve $-1 -1 $-1 -0.20049999999999912 0 0.48999999999999999 -39.370078740157481 -0 -0 I I #
-235 coedge $-1 -1 $-1 $198 $259 $211 $243 forward $123 $-1 #
-236 ellipse-curve $-1 -1 $-1 0.13229334402529061 -0.15600000000000128 0.48999999999999999 0 0 1 0.01499999999999972 0 0 1 I I #
-237 edge $-1 -1 $-1 $249 -0.0025981739918256573 $239 0 $217 $260 forward @7 unknown F #
-238 coedge $-1 -1 $-1 $205 $211 $245 $261 forward $212 $-1 #
-239 vertex $-1 -1 $-1 $237 $262 #
-240 ellipse-curve $-1 -1 $-1 -0.132293344025295 -0.15600000000000183 0 0 0 1 0.014999999999999243 0 0 1 I I #
-241 straight-curve $-1 -1 $-1 -0.132293344025295 -0.17100000000000098 0.48999999999999999 39.370078740157481 0 0 I I #
-242 point $-1 -1 $-1 0.13229334402529061 -0.17100000000000098 0.48999999999999999 #
-243 edge $-1 -1 $-1 $263 -2.4116929954381066 $213 -1.5707963267948966 $235 $264 forward @7 unknown F #
-244 point $-1 -1 $-1 -0.132293344025295 -0.17100000000000107 0.48999999999999999 #
-245 coedge $-1 -1 $-1 $265 $217 $238 $261 reversed $180 $-1 #
-246 coedge $-1 -1 $-1 $217 $265 $218 $248 forward $180 $-1 #
-247 coedge $-1 -1 $-1 $219 $218 $266 $267 reversed $144 $-1 #
-248 edge $-1 -1 $-1 $268 -0 $249 0.012445999999999999 $246 $269 forward @7 unknown F #
-249 vertex $-1 -1 $-1 $221 $270 #
-250 ellipse-curve $-1 -1 $-1 -0.20049999999999968 -0.0797690315576811 0 0 0 1 0.015000000000000182 0 0 1 I I #
-251 coedge $-1 -1 $-1 $266 $226 $222 $252 forward $123 $-1 #
-252 edge $-1 -1 $-1 $228 -4.4061976289810898e-020 $253 0.0016451334015650935 $251 $271 forward @7 unknown F #
-253 vertex $-1 -1 $-1 $252 $272 #
-254 straight-curve $-1 -1 $-1 -0.21549999999999994 -0.0797690315576811 0.48999999999999999 -0 -0 -39.370078740157481 I I #
-255 point $-1 -1 $-1 -0.21549999999999994 -0.0797690315576811 0 #
-256 ellipse-curve $-1 -1 $-1 -0.20049999999999912 -0.015000000000000249 0.48999999999999999 0 0 1 0.015000000000000523 0 0 1 I I #
-257 point $-1 -1 $-1 -0.21549999999999966 -0.015000000000000248 0.48999999999999999 #
-258 point $-1 -1 $-1 -0.20049999999999912 0 0.48999999999999999 #
-259 coedge $-1 -1 $-1 $235 $266 $265 $273 forward $123 $-1 #
-260 straight-curve $-1 -1 $-1 -0.14347196372817142 -0.16600192289204826 0 26.25176612085879 -29.340209193901995 0 I I #
-261 edge $-1 -1 $-1 $263 -0 $239 0.012445999999999999 $238 $274 forward @7 unknown F #
-262 point $-1 -1 $-1 -0.14347196372817142 -0.16600192289204826 0 #
-263 vertex $-1 -1 $-1 $273 $275 #
-264 ellipse-curve $-1 -1 $-1 -0.132293344025295 -0.15600000000000183 0.48999999999999999 0 0 1 0.014999999999999243 0 0 1 I I #
-265 coedge $-1 -1 $-1 $246 $245 $259 $273 reversed $180 $-1 #
-266 coedge $-1 -1 $-1 $259 $251 $247 $267 forward $123 $-1 #
-267 edge $-1 -1 $-1 $253 -3.1415926535897931 $268 -2.4116929954381048 $266 $276 forward @7 unknown F #
-268 vertex $-1 -1 $-1 $267 $277 #
-269 straight-curve $-1 -1 $-1 -0.21167861970287671 -0.089770954449728116 0.48999999999999999 -0 -0 -39.370078740157481 I I #
-270 point $-1 -1 $-1 -0.21167861970287671 -0.089770954449728116 0 #
-271 straight-curve $-1 -1 $-1 -0.21549999999999994 -0.015000000000000249 0.48999999999999999 0 -39.370078740157481 0 I I #
-272 point $-1 -1 $-1 -0.21549999999999994 -0.0797690315576811 0.48999999999999999 #
-273 edge $-1 -1 $-1 $268 -0.0025981739918256573 $263 0 $259 $278 forward @7 unknown F #
-274 straight-curve $-1 -1 $-1 -0.14347196372817142 -0.16600192289204826 0.48999999999999999 -0 -0 -39.370078740157481 I I #
-275 point $-1 -1 $-1 -0.14347196372817142 -0.16600192289204826 0.48999999999999999 #
-276 ellipse-curve $-1 -1 $-1 -0.20049999999999968 -0.0797690315576811 0.48999999999999999 0 0 1 0.015000000000000182 0 0 1 I I #
-277 point $-1 -1 $-1 -0.21167861970287671 -0.089770954449728116 0.48999999999999999 #
-278 straight-curve $-1 -1 $-1 -0.14347196372817142 -0.16600192289204826 0.48999999999999999 26.25176612085879 -29.340209193901995 0 I I #
End-of-ACIS-data 