                                                                        S      1
,,39Hsimple clamp block for pidtech plus.ipt,27HNo Iges File Name specifG      1
ied,22HAutodesk Inventor 2011,37HAutoDesk Inventor Iges Exporter R2011, G      2
32,38,6,99,15,39Hsimple clamp block for pidtech plus.ipt,1.0D0,1,2HIN,1,G      3
.08D0,15H20120701.135617,3.93700787401575D-4,10000.0D0,4HMarc,,11,0,,;  G      4
     406       1       0       0       1       0       0       000000000D      1
     406       0       0       1       3                               0D      2
     120       2       0       0       0       0       0       000010000D      3
     120       0       0       1       0                               0D      4
     110       3       0       0       0       0       0       000010000D      5
     110       0       0       2       0                               0D      6
     110       5       0       0       0       0       0       001010000D      7
     110       0       0       1       0                               0D      8
     504       6       0       0       0       0       0       000010001D      9
     504       0       0      12       1                               0D     10
     502      18       0       0       0       0       0       000010000D     11
     502       0       0      15       1                               0D     12
     110      33       0       0       0       0       0       000010000D     13
     110       0       0       2       0                               0D     14
     100      35       0       0       0       0      17       000010000D     15
     100       0       0       2       0                               0D     16
     124      37       0       0       0       0       0       000000000D     17
     124       0       0       2       0                               0D     18
     110      39       0       0       0       0       0       000010000D     19
     110       0       0       2       0                               0D     20
     100      41       0       0       0       0      23       000010000D     21
     100       0       0       2       0                               0D     22
     124      43       0       0       0       0       0       000000000D     23
     124       0       0       2       0                               0D     24
     508      45       0       0       0       0       0       000010000D     25
     508       0       0       1       1                               0D     26
     510      46       0       0       0       0       0       000010000D     27
     510       0    -325       1       1                               0D     28
     128      47       0       0       0       0       0       000010000D     29
     128       0       0      17       0                               0D     30
     110      64       0       0       0       0       0       000010000D     31
     110       0       0       1       0                               0D     32
     100      65       0       0       0       0      35       000010000D     33
     100       0       0       2       0                               0D     34
     124      67       0       0       0       0       0       000000000D     35
     124       0       0       2       0                               0D     36
     110      69       0       0       0       0       0       000010000D     37
     110       0       0       1       0                               0D     38
     100      70       0       0       0       0      41       000010000D     39
     100       0       0       2       0                               0D     40
     124      72       0       0       0       0       0       000000000D     41
     124       0       0       2       0                               0D     42
     508      74       0       0       0       0       0       000010000D     43
     508       0       0       1       1                               0D     44
     510      75       0       0       0       0       0       000010000D     45
     510       0    -325       1       1                               0D     46
     128      76       0       0       0       0       0       000010000D     47
     128       0       0      17       0                               0D     48
     110      93       0       0       0       0       0       000010000D     49
     110       0       0       1       0                               0D     50
     100      94       0       0       0       0      53       000010000D     51
     100       0       0       2       0                               0D     52
     124      96       0       0       0       0       0       000000000D     53
     124       0       0       2       0                               0D     54
     110      98       0       0       0       0       0       000010000D     55
     110       0       0       1       0                               0D     56
     100      99       0       0       0       0      59       000010000D     57
     100       0       0       2       0                               0D     58
     124     101       0       0       0       0       0       000000000D     59
     124       0       0       2       0                               0D     60
     508     103       0       0       0       0       0       000010000D     61
     508       0       0       1       1                               0D     62
     510     104       0       0       0       0       0       000010000D     63
     510       0    -325       1       1                               0D     64
     128     105       0       0       0       0       0       000010000D     65
     128       0       0      17       0                               0D     66
     110     122       0       0       0       0       0       000010000D     67
     110       0       0       1       0                               0D     68
     100     123       0       0       0       0      71       000010000D     69
     100       0       0       2       0                               0D     70
     124     125       0       0       0       0       0       000000000D     71
     124       0       0       2       0                               0D     72
     110     127       0       0       0       0       0       000010000D     73
     110       0       0       1       0                               0D     74
     100     128       0       0       0       0      77       000010000D     75
     100       0       0       2       0                               0D     76
     124     130       0       0       0       0       0       000000000D     77
     124       0       0       2       0                               0D     78
     508     132       0       0       0       0       0       000010000D     79
     508       0       0       1       1                               0D     80
     510     133       0       0       0       0       0       000010000D     81
     510       0    -325       1       1                               0D     82
     128     134       0       0       0       0       0       000010000D     83
     128       0       0      17       0                               0D     84
     110     151       0       0       0       0       0       000010000D     85
     110       0       0       1       0                               0D     86
     100     152       0       0       0       0      89       000010000D     87
     100       0       0       2       0                               0D     88
     124     154       0       0       0       0       0       000000000D     89
     124       0       0       2       0                               0D     90
     110     156       0       0       0       0       0       000010000D     91
     110       0       0       1       0                               0D     92
     100     157       0       0       0       0      95       000010000D     93
     100       0       0       2       0                               0D     94
     124     159       0       0       0       0       0       000000000D     95
     124       0       0       2       0                               0D     96
     508     161       0       0       0       0       0       000010000D     97
     508       0       0       1       1                               0D     98
     510     162       0       0       0       0       0       000010000D     99
     510       0    -325       1       1                               0D    100
     120     163       0       0       0       0       0       000010000D    101
     120       0       0       1       0                               0D    102
     110     164       0       0       0       0       0       000010000D    103
     110       0       0       2       0                               0D    104
     110     166       0       0       0       0       0       001010000D    105
     110       0       0       1       0                               0D    106
     110     167       0       0       0       0       0       000010000D    107
     110       0       0       2       0                               0D    108
     100     169       0       0       0       0     111       000010000D    109
     100       0       0       2       0                               0D    110
     124     171       0       0       0       0       0       000000000D    111
     124       0       0       2       0                               0D    112
     110     173       0       0       0       0       0       000010000D    113
     110       0       0       2       0                               0D    114
     100     175       0       0       0       0     117       000010000D    115
     100       0       0       2       0                               0D    116
     124     177       0       0       0       0       0       000000000D    117
     124       0       0       2       0                               0D    118
     508     179       0       0       0       0       0       000010000D    119
     508       0       0       1       1                               0D    120
     510     180       0       0       0       0       0       000010000D    121
     510       0    -325       1       1                               0D    122
     120     181       0       0       0       0       0       000010000D    123
     120       0       0       1       0                               0D    124
     110     182       0       0       0       0       0       000010000D    125
     110       0       0       2       0                               0D    126
     110     184       0       0       0       0       0       001010000D    127
     110       0       0       1       0                               0D    128
     100     185       0       0       0       0     117       000010000D    129
     100       0       0       2       0                               0D    130
     100     187       0       0       0       0     111       000010000D    131
     100       0       0       2       0                               0D    132
     508     189       0       0       0       0       0       000010000D    133
     508       0       0       1       1                               0D    134
     510     190       0       0       0       0       0       000010000D    135
     510       0    -325       1       1                               0D    136
     116     191       0       0       0       0       0       000010000D    137
     116       0       0       1       0                               0D    138
     123     192       0       0       0       0       0       000010200D    139
     123       0       0       1       0                               0D    140
     190     193       0       0       0       0       0       000010000D    141
     190       0       0       1       1                               0D    142
     123     194       0       0       0       0       0       000010200D    143
     123       0       0       1       0                               0D    144
     508     195       0       0       0       0       0       000010000D    145
     508       0       0       1       1                               0D    146
     100     196       0       0       0       0      17       000010000D    147
     100       0       0       2       0                               0D    148
     508     198       0       0       0       0       0       000010000D    149
     508       0       0       1       1                               0D    150
     510     199       0       0       0       0       0       000010000D    151
     510       0    -325       1       1                               0D    152
     128     200       0       0       0       0       0       000010000D    153
     128       0       0      17       0                               0D    154
     100     217       0       0       0       0      95       000010000D    155
     100       0       0       2       0                               0D    156
     100     219       0       0       0       0      89       000010000D    157
     100       0       0       2       0                               0D    158
     508     221       0       0       0       0       0       000010000D    159
     508       0       0       1       1                               0D    160
     510     222       0       0       0       0       0       000010000D    161
     510       0    -325       1       1                               0D    162
     128     223       0       0       0       0       0       000010000D    163
     128       0       0      17       0                               0D    164
     100     240       0       0       0       0      77       000010000D    165
     100       0       0       2       0                               0D    166
     100     242       0       0       0       0      71       000010000D    167
     100       0       0       2       0                               0D    168
     508     244       0       0       0       0       0       000010000D    169
     508       0       0       1       1                               0D    170
     510     245       0       0       0       0       0       000010000D    171
     510       0    -325       1       1                               0D    172
     128     246       0       0       0       0       0       000010000D    173
     128       0       0      17       0                               0D    174
     100     263       0       0       0       0      59       000010000D    175
     100       0       0       2       0                               0D    176
     100     265       0       0       0       0      53       000010000D    177
     100       0       0       2       0                               0D    178
     508     267       0       0       0       0       0       000010000D    179
     508       0       0       1       1                               0D    180
     510     268       0       0       0       0       0       000010000D    181
     510       0    -325       1       1                               0D    182
     128     269       0       0       0       0       0       000010000D    183
     128       0       0      17       0                               0D    184
     100     286       0       0       0       0      41       000010000D    185
     100       0       0       2       0                               0D    186
     100     288       0       0       0       0      35       000010000D    187
     100       0       0       2       0                               0D    188
     508     290       0       0       0       0       0       000010000D    189
     508       0       0       1       1                               0D    190
     510     291       0       0       0       0       0       000010000D    191
     510       0    -325       1       1                               0D    192
     120     292       0       0       0       0       0       000010000D    193
     120       0       0       1       0                               0D    194
     110     293       0       0       0       0       0       000010000D    195
     110       0       0       2       0                               0D    196
     110     295       0       0       0       0       0       001010000D    197
     110       0       0       1       0                               0D    198
     100     296       0       0       0       0      23       000010000D    199
     100       0       0       2       0                               0D    200
     508     298       0       0       0       0       0       000010000D    201
     508       0       0       1       1                               0D    202
     510     299       0       0       0       0       0       000010000D    203
     510       0    -325       1       1                               0D    204
     116     300       0       0       0       0       0       000010000D    205
     116       0       0       1       0                               0D    206
     123     301       0       0       0       0       0       000010200D    207
     123       0       0       1       0                               0D    208
     190     302       0       0       0       0       0       000010000D    209
     190       0       0       1       1                               0D    210
     123     303       0       0       0       0       0       000010200D    211
     123       0       0       1       0                               0D    212
     110     304       0       0       0       0       0       000010000D    213
     110       0       0       1       0                               0D    214
     110     305       0       0       0       0       0       000010000D    215
     110       0       0       1       0                               0D    216
     110     306       0       0       0       0       0       000010000D    217
     110       0       0       1       0                               0D    218
     110     307       0       0       0       0       0       000010000D    219
     110       0       0       1       0                               0D    220
     508     308       0       0       0       0       0       000010000D    221
     508       0       0       1       1                               0D    222
     510     309       0       0       0       0       0       000010000D    223
     510       0    -325       1       1                               0D    224
     116     310       0       0       0       0       0       000010000D    225
     116       0       0       1       0                               0D    226
     123     311       0       0       0       0       0       000010200D    227
     123       0       0       1       0                               0D    228
     190     312       0       0       0       0       0       000010000D    229
     190       0       0       1       1                               0D    230
     123     313       0       0       0       0       0       000010200D    231
     123       0       0       1       0                               0D    232
     110     314       0       0       0       0       0       000010000D    233
     110       0       0       1       0                               0D    234
     110     315       0       0       0       0       0       000010000D    235
     110       0       0       1       0                               0D    236
     110     316       0       0       0       0       0       000010000D    237
     110       0       0       1       0                               0D    238
     508     317       0       0       0       0       0       000010000D    239
     508       0       0       1       1                               0D    240
     510     318       0       0       0       0       0       000010000D    241
     510       0    -325       1       1                               0D    242
     116     319       0       0       0       0       0       000010000D    243
     116       0       0       1       0                               0D    244
     123     320       0       0       0       0       0       000010200D    245
     123       0       0       1       0                               0D    246
     190     321       0       0       0       0       0       000010000D    247
     190       0       0       1       1                               0D    248
     123     322       0       0       0       0       0       000010200D    249
     123       0       0       1       0                               0D    250
     110     323       0       0       0       0       0       000010000D    251
     110       0       0       1       0                               0D    252
     110     324       0       0       0       0       0       000010000D    253
     110       0       0       1       0                               0D    254
     110     325       0       0       0       0       0       000010000D    255
     110       0       0       1       0                               0D    256
     508     326       0       0       0       0       0       000010000D    257
     508       0       0       1       1                               0D    258
     510     327       0       0       0       0       0       000010000D    259
     510       0    -325       1       1                               0D    260
     116     328       0       0       0       0       0       000010000D    261
     116       0       0       1       0                               0D    262
     123     329       0       0       0       0       0       000010200D    263
     123       0       0       1       0                               0D    264
     190     330       0       0       0       0       0       000010000D    265
     190       0       0       1       1                               0D    266
     123     331       0       0       0       0       0       000010200D    267
     123       0       0       1       0                               0D    268
     110     332       0       0       0       0       0       000010000D    269
     110       0       0       1       0                               0D    270
     110     333       0       0       0       0       0       000010000D    271
     110       0       0       1       0                               0D    272
     508     334       0       0       0       0       0       000010000D    273
     508       0       0       1       1                               0D    274
     510     335       0       0       0       0       0       000010000D    275
     510       0    -325       1       1                               0D    276
     116     336       0       0       0       0       0       000010000D    277
     116       0       0       1       0                               0D    278
     123     337       0       0       0       0       0       000010200D    279
     123       0       0       1       0                               0D    280
     190     338       0       0       0       0       0       000010000D    281
     190       0       0       1       1                               0D    282
     123     339       0       0       0       0       0       000010200D    283
     123       0       0       1       0                               0D    284
     508     340       0       0       0       0       0       000010000D    285
     508       0       0       1       1                               0D    286
     508     341       0       0       0       0       0       000010000D    287
     508       0       0       1       1                               0D    288
     508     342       0       0       0       0       0       000010000D    289
     508       0       0       1       1                               0D    290
     508     343       0       0       0       0       0       000010000D    291
     508       0       0       1       1                               0D    292
     508     344       0       0       0       0       0       000010000D    293
     508       0       0       1       1                               0D    294
     508     345       0       0       0       0       0       000010000D    295
     508       0       0       1       1                               0D    296
     510     346       0       0       0       0       0       000010000D    297
     510       0    -325       1       1                               0D    298
     116     347       0       0       0       0       0       000010000D    299
     116       0       0       1       0                               0D    300
     123     348       0       0       0       0       0       000010200D    301
     123       0       0       1       0                               0D    302
     190     349       0       0       0       0       0       000010000D    303
     190       0       0       1       1                               0D    304
     123     350       0       0       0       0       0       000010200D    305
     123       0       0       1       0                               0D    306
     508     351       0       0       0       0       0       000010000D    307
     508       0       0       1       1                               0D    308
     508     352       0       0       0       0       0       000010000D    309
     508       0       0       1       1                               0D    310
     508     353       0       0       0       0       0       000010000D    311
     508       0       0       1       1                               0D    312
     508     354       0       0       0       0       0       000010000D    313
     508       0       0       1       1                               0D    314
     508     355       0       0       0       0       0       000010000D    315
     508       0       0       1       1                               0D    316
     508     356       0       0       0       0       0       000010000D    317
     508       0       0       1       1                               0D    318
     510     357       0       0       0       0       0       000010000D    319
     510       0    -325       1       1                               0D    320
     514     358       0       0       0       0       0       000010000D    321
     514       0       0       2       1                               0D    322
     186     360       0       0       1       0       0       000000000D    323
     186       0       0       1       0                  Solid1       0D    324
     314     361       0       0       0       0       0       000000000D    325
     314       0       8       1       0                               0D    326
406,2,0,35Hsimple clamp block for pidtech plus;                        1P      1
120,7,5,0.0D0,6.28318530717959D0;                                      3P      2
110,-.405590551181102D0,0.0D0,0.0D0,-.405590551181102D0,0.0D0,         5P      3
.25745D0;                                                              5P      4
110,0.0D0,0.0D0,0.0D0,0.0D0,0.0D0,1.0D0;                               7P      5
504,48,13,11,1,11,2,15,11,1,11,3,19,11,3,11,4,21,11,2,11,4,31,         9P      6
11,5,11,6,33,11,7,11,5,37,11,7,11,8,39,11,6,11,8,49,11,9,11,10,        9P      7
51,11,11,11,9,55,11,11,11,12,57,11,10,11,12,67,11,13,11,14,69,         9P      8
11,15,11,13,73,11,15,11,16,75,11,14,11,16,85,11,17,11,18,87,11,        9P      9
19,11,17,91,11,19,11,20,93,11,18,11,20,107,11,21,11,22,109,11,         9P     10
23,11,21,113,11,23,11,24,115,11,22,11,24,129,11,24,11,22,131,11,       9P     11
21,11,23,147,11,3,11,1,155,11,20,11,18,157,11,17,11,19,165,11,         9P     12
16,11,14,167,11,13,11,15,175,11,12,11,10,177,11,9,11,11,185,11,        9P     13
8,11,6,187,11,5,11,7,199,11,4,11,2,213,11,25,11,26,215,11,27,11,       9P     14
26,217,11,28,11,27,219,11,28,11,25,233,11,26,11,29,235,11,30,11,       9P     15
29,237,11,27,11,30,251,11,29,11,31,253,11,32,11,31,255,11,30,11,       9P     16
32,269,11,31,11,25,271,11,32,11,28;                                    9P     17
502,32,-.405590551181102D0,4.96705170268348D-17,.101D0,               11P     18
-.405590551181102D0,0.0D0,.25D0,.405590551181102D0,                   11P     19
4.96705170268348D-17,.101D0,.405590551181102D0,                       11P     20
4.96705170268348D-17,.25D0,.5605D0,.375D0,0.0D0,.5605D0,.375D0,       11P     21
.25D0,.6895D0,.375D0,0.0D0,.6895D0,.375D0,.25D0,-.6895D0,.375D0,      11P     22
0.0D0,-.6895D0,.375D0,.25D0,-.5605D0,.375D0,0.0D0,-.5605D0,           11P     23
.375D0,.25D0,-.6895D0,-.375D0,0.0D0,-.6895D0,-.375D0,.25D0,           11P     24
-.5605D0,-.375D0,0.0D0,-.5605D0,-.375D0,.25D0,.5605D0,-.375D0,        11P     25
0.0D0,.5605D0,-.375D0,.25D0,.6895D0,-.375D0,0.0D0,.6895D0,            11P     26
-.375D0,.25D0,.480574803149606D0,0.0D0,0.0D0,.480574803149606D0,      11P     27
0.0D0,.101D0,-.480574803149606D0,5.88534394428035D-17,0.0D0,          11P     28
-.480574803149606D0,5.88534394428035D-17,.101D0,.75D0,.5D0,           11P     29
.25D0,.75D0,-.5D0,.25D0,.75D0,-.5D0,0.0D0,.75D0,.5D0,0.0D0,           11P     30
-.75D0,-.5D0,.25D0,-.75D0,-.5D0,0.0D0,-.75D0,.5D0,.25D0,-.75D0,       11P     31
.5D0,0.0D0;                                                           11P     32
110,-.405590551181102D0,0.0D0,.101D0,-.405590551181102D0,0.0D0,       13P     33
.25D0;                                                                13P     34
100,0.0D0,0.0D0,0.0D0,.405590551181102D0,4.96705170268348D-17,        15P     35
-.405590551181102D0,4.96705170268348D-17;                             15P     36
124,-1.0D0,0.0D0,0.0D0,0.0D0,0.0D0,1.0D0,0.0D0,0.0D0,0.0D0,           17P     37
0.0D0,-1.0D0,.101D0;                                                  17P     38
110,.405590551181102D0,4.96705170268348D-17,.101D0,                   19P     39
.405590551181102D0,4.96705170268348D-17,.25D0;                        19P     40
100,0.0D0,0.0D0,0.0D0,.405590551181102D0,0.0D0,                       21P     41
-.405590551181102D0,4.96705170268348D-17;                             21P     42
124,-1.0D0,0.0D0,0.0D0,0.0D0,0.0D0,1.0D0,0.0D0,0.0D0,0.0D0,           23P     43
0.0D0,-1.0D0,.25D0;                                                   23P     44
508,4,0,9,1,0,0,0,9,2,1,0,0,9,3,1,0,0,9,4,0,0;                        25P     45
510,3,1,1,25;                                                         27P     46
128,1,8,1,2,0,1,0,0,0,-7.75193798449612D0,-7.75193798449612D0,        29P     47
-3.87596899224806D0,-3.87596899224806D0,0.0D0,0.0D0,0.0D0,            29P     48
.101316363078271D0,.101316363078271D0,.202632726156542D0,             29P     49
.202632726156542D0,.303949089234812D0,.303949089234812D0,             29P     50
.405265452313083D0,.405265452313083D0,.405265452313083D0,1.0D0,       29P     51
1.0D0,.707106781186548D0,.707106781186548D0,1.0D0,1.0D0,              29P     52
.707106781186548D0,.707106781186548D0,1.0D0,1.0D0,                    29P     53
.707106781186548D0,.707106781186548D0,1.0D0,1.0D0,                    29P     54
.707106781186548D0,.707106781186548D0,1.0D0,1.0D0,.6895D0,            29P     55
.375D0,.25D0,.6895D0,.375D0,0.0D0,.6895D0,.3105D0,.25D0,.6895D0,      29P     56
.3105D0,0.0D0,.625D0,.3105D0,.25D0,.625D0,.3105D0,0.0D0,.5605D0,      29P     57
.3105D0,.25D0,.5605D0,.3105D0,0.0D0,.5605D0,.375D0,.25D0,             29P     58
.5605D0,.375D0,0.0D0,.5605D0,.4395D0,.25D0,.5605D0,.4395D0,           29P     59
0.0D0,.625D0,.4395D0,.25D0,.625D0,.4395D0,0.0D0,.6895D0,.4395D0,      29P     60
.25D0,.6895D0,.4395D0,0.0D0,.6895D0,.375D0,.25D0,.6895D0,.375D0,      29P     61
0.0D0,-7.75193798449612D0,-3.87596899224806D0,0.0D0,                  29P     62
.405265452313083D0;                                                   29P     63
110,.5605D0,.375D0,0.0D0,.5605D0,.375D0,.25D0;                        31P     64
100,0.0D0,0.0D0,0.0D0,-.0645D0,7.89897185450043D-18,.0645D0,          33P     65
-1.57979437090009D-17;                                                33P     66
124,-1.0D0,0.0D0,0.0D0,.625D0,0.0D0,-1.0D0,0.0D0,.375D0,0.0D0,        35P     67
0.0D0,1.0D0,0.0D0;                                                    35P     68
110,.6895D0,.375D0,0.0D0,.6895D0,.375D0,.25D0;                        37P     69
100,0.0D0,0.0D0,0.0D0,.0645D0,0.0D0,-.0645D0,                         39P     70
7.89897185450043D-18;                                                 39P     71
124,-1.0D0,0.0D0,0.0D0,.625D0,0.0D0,1.0D0,0.0D0,.375D0,0.0D0,         41P     72
0.0D0,-1.0D0,.25D0;                                                   41P     73
508,4,0,9,5,0,0,0,9,6,0,0,0,9,7,1,0,0,9,8,0,0;                        43P     74
510,29,1,1,43;                                                        45P     75
128,1,8,1,2,0,1,0,0,0,-7.75193798449612D0,-7.75193798449612D0,        47P     76
-3.87596899224806D0,-3.87596899224806D0,0.0D0,0.0D0,0.0D0,            47P     77
.101316363078271D0,.101316363078271D0,.202632726156542D0,             47P     78
.202632726156542D0,.303949089234812D0,.303949089234812D0,             47P     79
.405265452313083D0,.405265452313083D0,.405265452313083D0,1.0D0,       47P     80
1.0D0,.707106781186548D0,.707106781186548D0,1.0D0,1.0D0,              47P     81
.707106781186548D0,.707106781186548D0,1.0D0,1.0D0,                    47P     82
.707106781186548D0,.707106781186548D0,1.0D0,1.0D0,                    47P     83
.707106781186548D0,.707106781186548D0,1.0D0,1.0D0,-.5605D0,           47P     84
.375D0,.25D0,-.5605D0,.375D0,0.0D0,-.5605D0,.3105D0,.25D0,            47P     85
-.5605D0,.3105D0,0.0D0,-.625D0,.3105D0,.25D0,-.625D0,.3105D0,         47P     86
0.0D0,-.6895D0,.3105D0,.25D0,-.6895D0,.3105D0,0.0D0,-.6895D0,         47P     87
.375D0,.25D0,-.6895D0,.375D0,0.0D0,-.6895D0,.4395D0,.25D0,            47P     88
-.6895D0,.4395D0,0.0D0,-.625D0,.4395D0,.25D0,-.625D0,.4395D0,         47P     89
0.0D0,-.5605D0,.4395D0,.25D0,-.5605D0,.4395D0,0.0D0,-.5605D0,         47P     90
.375D0,.25D0,-.5605D0,.375D0,0.0D0,-7.75193798449612D0,               47P     91
-3.87596899224806D0,0.0D0,.405265452313083D0;                         47P     92
110,-.6895D0,.375D0,0.0D0,-.6895D0,.375D0,.25D0;                      49P     93
100,0.0D0,0.0D0,0.0D0,-.0645D0,7.89897185450043D-18,.0645D0,          51P     94
-1.57979437090009D-17;                                                51P     95
124,-1.0D0,0.0D0,0.0D0,-.625D0,0.0D0,-1.0D0,0.0D0,.375D0,0.0D0,       53P     96
0.0D0,1.0D0,0.0D0;                                                    53P     97
110,-.5605D0,.375D0,0.0D0,-.5605D0,.375D0,.25D0;                      55P     98
100,0.0D0,0.0D0,0.0D0,.0645D0,0.0D0,-.0645D0,                         57P     99
7.89897185450043D-18;                                                 57P    100
124,-1.0D0,0.0D0,0.0D0,-.625D0,0.0D0,1.0D0,0.0D0,.375D0,0.0D0,        59P    101
0.0D0,-1.0D0,.25D0;                                                   59P    102
508,4,0,9,9,0,0,0,9,10,0,0,0,9,11,1,0,0,9,12,0,0;                     61P    103
510,47,1,1,61;                                                        63P    104
128,1,8,1,2,0,1,0,0,0,-7.75193798449612D0,-7.75193798449612D0,        65P    105
-3.87596899224806D0,-3.87596899224806D0,0.0D0,0.0D0,0.0D0,            65P    106
.101316363078271D0,.101316363078271D0,.202632726156542D0,             65P    107
.202632726156542D0,.303949089234812D0,.303949089234812D0,             65P    108
.405265452313083D0,.405265452313083D0,.405265452313083D0,1.0D0,       65P    109
1.0D0,.707106781186548D0,.707106781186548D0,1.0D0,1.0D0,              65P    110
.707106781186548D0,.707106781186548D0,1.0D0,1.0D0,                    65P    111
.707106781186548D0,.707106781186548D0,1.0D0,1.0D0,                    65P    112
.707106781186548D0,.707106781186548D0,1.0D0,1.0D0,-.5605D0,           65P    113
-.375D0,.25D0,-.5605D0,-.375D0,0.0D0,-.5605D0,-.4395D0,.25D0,         65P    114
-.5605D0,-.4395D0,0.0D0,-.625D0,-.4395D0,.25D0,-.625D0,-.4395D0,      65P    115
0.0D0,-.6895D0,-.4395D0,.25D0,-.6895D0,-.4395D0,0.0D0,-.6895D0,       65P    116
-.375D0,.25D0,-.6895D0,-.375D0,0.0D0,-.6895D0,-.3105D0,.25D0,         65P    117
-.6895D0,-.3105D0,0.0D0,-.625D0,-.3105D0,.25D0,-.625D0,-.3105D0,      65P    118
0.0D0,-.5605D0,-.3105D0,.25D0,-.5605D0,-.3105D0,0.0D0,-.5605D0,       65P    119
-.375D0,.25D0,-.5605D0,-.375D0,0.0D0,-7.75193798449612D0,             65P    120
-3.87596899224806D0,0.0D0,.405265452313083D0;                         65P    121
110,-.6895D0,-.375D0,0.0D0,-.6895D0,-.375D0,.25D0;                    67P    122
100,0.0D0,0.0D0,0.0D0,-.0645D0,7.89897185450043D-18,.0645D0,          69P    123
-1.57979437090009D-17;                                                69P    124
124,-1.0D0,0.0D0,0.0D0,-.625D0,0.0D0,-1.0D0,0.0D0,-.375D0,0.0D0,      71P    125
0.0D0,1.0D0,0.0D0;                                                    71P    126
110,-.5605D0,-.375D0,0.0D0,-.5605D0,-.375D0,.25D0;                    73P    127
100,0.0D0,0.0D0,0.0D0,.0645D0,0.0D0,-.0645D0,                         75P    128
7.89897185450043D-18;                                                 75P    129
124,-1.0D0,0.0D0,0.0D0,-.625D0,0.0D0,1.0D0,0.0D0,-.375D0,0.0D0,       77P    130
0.0D0,-1.0D0,.25D0;                                                   77P    131
508,4,0,9,13,0,0,0,9,14,0,0,0,9,15,1,0,0,9,16,0,0;                    79P    132
510,65,1,1,79;                                                        81P    133
128,1,8,1,2,0,1,0,0,0,-7.75193798449612D0,-7.75193798449612D0,        83P    134
-3.87596899224806D0,-3.87596899224806D0,0.0D0,0.0D0,0.0D0,            83P    135
.101316363078271D0,.101316363078271D0,.202632726156542D0,             83P    136
.202632726156542D0,.303949089234812D0,.303949089234812D0,             83P    137
.405265452313083D0,.405265452313083D0,.405265452313083D0,1.0D0,       83P    138
1.0D0,.707106781186548D0,.707106781186548D0,1.0D0,1.0D0,              83P    139
.707106781186548D0,.707106781186548D0,1.0D0,1.0D0,                    83P    140
.707106781186548D0,.707106781186548D0,1.0D0,1.0D0,                    83P    141
.707106781186548D0,.707106781186548D0,1.0D0,1.0D0,.6895D0,            83P    142
-.375D0,.25D0,.6895D0,-.375D0,0.0D0,.6895D0,-.4395D0,.25D0,           83P    143
.6895D0,-.4395D0,0.0D0,.625D0,-.4395D0,.25D0,.625D0,-.4395D0,         83P    144
0.0D0,.5605D0,-.4395D0,.25D0,.5605D0,-.4395D0,0.0D0,.5605D0,          83P    145
-.375D0,.25D0,.5605D0,-.375D0,0.0D0,.5605D0,-.3105D0,.25D0,           83P    146
.5605D0,-.3105D0,0.0D0,.625D0,-.3105D0,.25D0,.625D0,-.3105D0,         83P    147
0.0D0,.6895D0,-.3105D0,.25D0,.6895D0,-.3105D0,0.0D0,.6895D0,          83P    148
-.375D0,.25D0,.6895D0,-.375D0,0.0D0,-7.75193798449612D0,              83P    149
-3.87596899224806D0,0.0D0,.405265452313083D0;                         83P    150
110,.5605D0,-.375D0,0.0D0,.5605D0,-.375D0,.25D0;                      85P    151
100,0.0D0,0.0D0,0.0D0,-.0645D0,7.89897185450043D-18,.0645D0,          87P    152
-1.57979437090009D-17;                                                87P    153
124,-1.0D0,0.0D0,0.0D0,.625D0,0.0D0,-1.0D0,0.0D0,-.375D0,0.0D0,       89P    154
0.0D0,1.0D0,0.0D0;                                                    89P    155
110,.6895D0,-.375D0,0.0D0,.6895D0,-.375D0,.25D0;                      91P    156
100,0.0D0,0.0D0,0.0D0,.0645D0,0.0D0,-.0645D0,                         93P    157
7.89897185450043D-18;                                                 93P    158
124,-1.0D0,0.0D0,0.0D0,.625D0,0.0D0,1.0D0,0.0D0,-.375D0,0.0D0,        95P    159
0.0D0,-1.0D0,.25D0;                                                   95P    160
508,4,0,9,17,0,0,0,9,18,0,0,0,9,19,1,0,0,9,20,0,0;                    97P    161
510,83,1,1,97;                                                        99P    162
120,105,103,0.0D0,6.28318530717959D0;                                101P    163
110,.480574803149606D0,0.0D0,-.00505D0,.480574803149606D0,0.0D0,     103P    164
.10605D0;                                                            103P    165
110,0.0D0,0.0D0,-.00505D0,0.0D0,0.0D0,.99495D0;                      105P    166
110,.480574803149606D0,0.0D0,0.0D0,.480574803149606D0,0.0D0,         107P    167
.101D0;                                                              107P    168
100,0.0D0,0.0D0,0.0D0,-.480574803149606D0,5.88534394428035D-17,      109P    169
.480574803149606D0,-1.17706878885607D-16;                            109P    170
124,1.0D0,0.0D0,0.0D0,0.0D0,0.0D0,1.0D0,0.0D0,0.0D0,0.0D0,0.0D0,     111P    171
1.0D0,0.0D0;                                                         111P    172
110,-.480574803149606D0,-5.88534394428035D-17,0.0D0,                 113P    173
-.480574803149606D0,-5.88534394428035D-17,.101D0;                    113P    174
100,0.0D0,0.0D0,0.0D0,.480574803149606D0,0.0D0,                      115P    175
-.480574803149606D0,5.88534394428035D-17;                            115P    176
124,1.0D0,0.0D0,0.0D0,0.0D0,0.0D0,-1.0D0,0.0D0,0.0D0,0.0D0,          117P    177
0.0D0,-1.0D0,.101D0;                                                 117P    178
508,4,0,9,21,0,0,0,9,22,0,0,0,9,23,1,0,0,9,24,0,0;                   119P    179
510,101,1,1,119;                                                     121P    180
120,127,125,0.0D0,6.28318530717959D0;                                123P    181
110,.480574803149606D0,0.0D0,-.00505D0,.480574803149606D0,0.0D0,     125P    182
.10605D0;                                                            125P    183
110,0.0D0,0.0D0,-.00505D0,0.0D0,0.0D0,.99495D0;                      127P    184
100,0.0D0,0.0D0,0.0D0,-.480574803149606D0,5.88534394428035D-17,      129P    185
.480574803149606D0,-1.17706878885607D-16;                            129P    186
100,0.0D0,0.0D0,0.0D0,.480574803149606D0,0.0D0,                      131P    187
-.480574803149606D0,5.88534394428035D-17;                            131P    188
508,4,0,9,21,1,0,0,9,25,0,0,0,9,23,0,0,0,9,26,0,0;                   133P    189
510,123,1,1,133;                                                     135P    190
116,0.0D0,0.0D0,.101D0,0;                                            137P    191
123,0.0D0,0.0D0,-1.0D0;                                              139P    192
190,137,139,143;                                                     141P    193
123,-1.0D0,0.0D0,0.0D0;                                              143P    194
508,2,0,9,25,1,0,0,9,24,1,0;                                         145P    195
100,0.0D0,0.0D0,0.0D0,-.405590551181102D0,4.96705170268348D-17,      147P    196
.405590551181102D0,-9.93410340536695D-17;                            147P    197
508,2,0,9,2,0,0,0,9,27,0,0;                                          149P    198
510,141,2,1,145,149;                                                 151P    199
128,1,8,1,2,0,1,0,0,0,-7.75193798449612D0,-7.75193798449612D0,       153P    200
-3.87596899224806D0,-3.87596899224806D0,0.0D0,0.0D0,0.0D0,           153P    201
.101316363078271D0,.101316363078271D0,.202632726156542D0,            153P    202
.202632726156542D0,.303949089234812D0,.303949089234812D0,            153P    203
.405265452313083D0,.405265452313083D0,.405265452313083D0,1.0D0,      153P    204
1.0D0,.707106781186548D0,.707106781186548D0,1.0D0,1.0D0,             153P    205
.707106781186548D0,.707106781186548D0,1.0D0,1.0D0,                   153P    206
.707106781186548D0,.707106781186548D0,1.0D0,1.0D0,                   153P    207
.707106781186548D0,.707106781186548D0,1.0D0,1.0D0,.6895D0,           153P    208
-.375D0,.25D0,.6895D0,-.375D0,0.0D0,.6895D0,-.4395D0,.25D0,          153P    209
.6895D0,-.4395D0,0.0D0,.625D0,-.4395D0,.25D0,.625D0,-.4395D0,        153P    210
0.0D0,.5605D0,-.4395D0,.25D0,.5605D0,-.4395D0,0.0D0,.5605D0,         153P    211
-.375D0,.25D0,.5605D0,-.375D0,0.0D0,.5605D0,-.3105D0,.25D0,          153P    212
.5605D0,-.3105D0,0.0D0,.625D0,-.3105D0,.25D0,.625D0,-.3105D0,        153P    213
0.0D0,.6895D0,-.3105D0,.25D0,.6895D0,-.3105D0,0.0D0,.6895D0,         153P    214
-.375D0,.25D0,.6895D0,-.375D0,0.0D0,-7.75193798449612D0,             153P    215
-3.87596899224806D0,0.0D0,.405265452313083D0;                        153P    216
100,0.0D0,0.0D0,0.0D0,-.0645D0,7.89897185450043D-18,.0645D0,         155P    217
-1.57979437090009D-17;                                               155P    218
100,0.0D0,0.0D0,0.0D0,.0645D0,0.0D0,-.0645D0,                        157P    219
7.89897185450043D-18;                                                157P    220
508,4,0,9,17,1,0,0,9,28,0,0,0,9,19,0,0,0,9,29,0,0;                   159P    221
510,153,1,1,159;                                                     161P    222
128,1,8,1,2,0,1,0,0,0,-7.75193798449612D0,-7.75193798449612D0,       163P    223
-3.87596899224806D0,-3.87596899224806D0,0.0D0,0.0D0,0.0D0,           163P    224
.101316363078271D0,.101316363078271D0,.202632726156542D0,            163P    225
.202632726156542D0,.303949089234812D0,.303949089234812D0,            163P    226
.405265452313083D0,.405265452313083D0,.405265452313083D0,1.0D0,      163P    227
1.0D0,.707106781186548D0,.707106781186548D0,1.0D0,1.0D0,             163P    228
.707106781186548D0,.707106781186548D0,1.0D0,1.0D0,                   163P    229
.707106781186548D0,.707106781186548D0,1.0D0,1.0D0,                   163P    230
.707106781186548D0,.707106781186548D0,1.0D0,1.0D0,-.5605D0,          163P    231
-.375D0,.25D0,-.5605D0,-.375D0,0.0D0,-.5605D0,-.4395D0,.25D0,        163P    232
-.5605D0,-.4395D0,0.0D0,-.625D0,-.4395D0,.25D0,-.625D0,-.4395D0,     163P    233
0.0D0,-.6895D0,-.4395D0,.25D0,-.6895D0,-.4395D0,0.0D0,-.6895D0,      163P    234
-.375D0,.25D0,-.6895D0,-.375D0,0.0D0,-.6895D0,-.3105D0,.25D0,        163P    235
-.6895D0,-.3105D0,0.0D0,-.625D0,-.3105D0,.25D0,-.625D0,-.3105D0,     163P    236
0.0D0,-.5605D0,-.3105D0,.25D0,-.5605D0,-.3105D0,0.0D0,-.5605D0,      163P    237
-.375D0,.25D0,-.5605D0,-.375D0,0.0D0,-7.75193798449612D0,            163P    238
-3.87596899224806D0,0.0D0,.405265452313083D0;                        163P    239
100,0.0D0,0.0D0,0.0D0,-.0645D0,7.89897185450043D-18,.0645D0,         165P    240
-1.57979437090009D-17;                                               165P    241
100,0.0D0,0.0D0,0.0D0,.0645D0,0.0D0,-.0645D0,                        167P    242
7.89897185450043D-18;                                                167P    243
508,4,0,9,13,1,0,0,9,30,0,0,0,9,15,0,0,0,9,31,0,0;                   169P    244
510,163,1,1,169;                                                     171P    245
128,1,8,1,2,0,1,0,0,0,-7.75193798449612D0,-7.75193798449612D0,       173P    246
-3.87596899224806D0,-3.87596899224806D0,0.0D0,0.0D0,0.0D0,           173P    247
.101316363078271D0,.101316363078271D0,.202632726156542D0,            173P    248
.202632726156542D0,.303949089234812D0,.303949089234812D0,            173P    249
.405265452313083D0,.405265452313083D0,.405265452313083D0,1.0D0,      173P    250
1.0D0,.707106781186548D0,.707106781186548D0,1.0D0,1.0D0,             173P    251
.707106781186548D0,.707106781186548D0,1.0D0,1.0D0,                   173P    252
.707106781186548D0,.707106781186548D0,1.0D0,1.0D0,                   173P    253
.707106781186548D0,.707106781186548D0,1.0D0,1.0D0,-.5605D0,          173P    254
.375D0,.25D0,-.5605D0,.375D0,0.0D0,-.5605D0,.3105D0,.25D0,           173P    255
-.5605D0,.3105D0,0.0D0,-.625D0,.3105D0,.25D0,-.625D0,.3105D0,        173P    256
0.0D0,-.6895D0,.3105D0,.25D0,-.6895D0,.3105D0,0.0D0,-.6895D0,        173P    257
.375D0,.25D0,-.6895D0,.375D0,0.0D0,-.6895D0,.4395D0,.25D0,           173P    258
-.6895D0,.4395D0,0.0D0,-.625D0,.4395D0,.25D0,-.625D0,.4395D0,        173P    259
0.0D0,-.5605D0,.4395D0,.25D0,-.5605D0,.4395D0,0.0D0,-.5605D0,        173P    260
.375D0,.25D0,-.5605D0,.375D0,0.0D0,-7.75193798449612D0,              173P    261
-3.87596899224806D0,0.0D0,.405265452313083D0;                        173P    262
100,0.0D0,0.0D0,0.0D0,-.0645D0,7.89897185450043D-18,.0645D0,         175P    263
-1.57979437090009D-17;                                               175P    264
100,0.0D0,0.0D0,0.0D0,.0645D0,0.0D0,-.0645D0,                        177P    265
7.89897185450043D-18;                                                177P    266
508,4,0,9,9,1,0,0,9,32,0,0,0,9,11,0,0,0,9,33,0,0;                    179P    267
510,173,1,1,179;                                                     181P    268
128,1,8,1,2,0,1,0,0,0,-7.75193798449612D0,-7.75193798449612D0,       183P    269
-3.87596899224806D0,-3.87596899224806D0,0.0D0,0.0D0,0.0D0,           183P    270
.101316363078271D0,.101316363078271D0,.202632726156542D0,            183P    271
.202632726156542D0,.303949089234812D0,.303949089234812D0,            183P    272
.405265452313083D0,.405265452313083D0,.405265452313083D0,1.0D0,      183P    273
1.0D0,.707106781186548D0,.707106781186548D0,1.0D0,1.0D0,             183P    274
.707106781186548D0,.707106781186548D0,1.0D0,1.0D0,                   183P    275
.707106781186548D0,.707106781186548D0,1.0D0,1.0D0,                   183P    276
.707106781186548D0,.707106781186548D0,1.0D0,1.0D0,.6895D0,           183P    277
.375D0,.25D0,.6895D0,.375D0,0.0D0,.6895D0,.3105D0,.25D0,.6895D0,     183P    278
.3105D0,0.0D0,.625D0,.3105D0,.25D0,.625D0,.3105D0,0.0D0,.5605D0,     183P    279
.3105D0,.25D0,.5605D0,.3105D0,0.0D0,.5605D0,.375D0,.25D0,            183P    280
.5605D0,.375D0,0.0D0,.5605D0,.4395D0,.25D0,.5605D0,.4395D0,          183P    281
0.0D0,.625D0,.4395D0,.25D0,.625D0,.4395D0,0.0D0,.6895D0,.4395D0,     183P    282
.25D0,.6895D0,.4395D0,0.0D0,.6895D0,.375D0,.25D0,.6895D0,.375D0,     183P    283
0.0D0,-7.75193798449612D0,-3.87596899224806D0,0.0D0,                 183P    284
.405265452313083D0;                                                  183P    285
100,0.0D0,0.0D0,0.0D0,-.0645D0,7.89897185450043D-18,.0645D0,         185P    286
-1.57979437090009D-17;                                               185P    287
100,0.0D0,0.0D0,0.0D0,.0645D0,0.0D0,-.0645D0,                        187P    288
7.89897185450043D-18;                                                187P    289
508,4,0,9,5,1,0,0,9,34,0,0,0,9,7,0,0,0,9,35,0,0;                     189P    290
510,183,1,1,189;                                                     191P    291
120,197,195,0.0D0,6.28318530717959D0;                                193P    292
110,-.405590551181102D0,0.0D0,0.0D0,-.405590551181102D0,0.0D0,       195P    293
.25745D0;                                                            195P    294
110,0.0D0,0.0D0,0.0D0,0.0D0,0.0D0,1.0D0;                             197P    295
100,0.0D0,0.0D0,0.0D0,-.405590551181102D0,4.96705170268348D-17,      199P    296
.405590551181102D0,-9.93410340536695D-17;                            199P    297
508,4,0,9,1,1,0,0,9,36,0,0,0,9,3,0,0,0,9,27,1,0;                     201P    298
510,193,1,1,201;                                                     203P    299
116,.75D0,.5D0,0.0D0,0;                                              205P    300
123,1.0D0,0.0D0,0.0D0;                                               207P    301
190,205,207,211;                                                     209P    302
123,0.0D0,0.0D0,-1.0D0;                                              211P    303
110,.75D0,.5D0,.25D0,.75D0,-.5D0,.25D0;                              213P    304
110,.75D0,-.5D0,0.0D0,.75D0,-.5D0,.25D0;                             215P    305
110,.75D0,.5D0,0.0D0,.75D0,-.5D0,0.0D0;                              217P    306
110,.75D0,.5D0,0.0D0,.75D0,.5D0,.25D0;                               219P    307
508,4,0,9,37,1,0,0,9,38,0,0,0,9,39,0,0,0,9,40,1,0;                   221P    308
510,209,1,1,221;                                                     223P    309
116,.75D0,-.5D0,0.0D0,0;                                             225P    310
123,0.0D0,-1.0D0,0.0D0;                                              227P    311
190,225,227,231;                                                     229P    312
123,0.0D0,0.0D0,-1.0D0;                                              231P    313
110,.75D0,-.5D0,.25D0,-.75D0,-.5D0,.25D0;                            233P    314
110,-.75D0,-.5D0,0.0D0,-.75D0,-.5D0,.25D0;                           235P    315
110,.75D0,-.5D0,0.0D0,-.75D0,-.5D0,0.0D0;                            237P    316
508,4,0,9,41,1,0,0,9,42,0,0,0,9,43,0,0,0,9,38,1,0;                   239P    317
510,229,1,1,239;                                                     241P    318
116,-.75D0,-.5D0,0.0D0,0;                                            243P    319
123,-1.0D0,0.0D0,0.0D0;                                              245P    320
190,243,245,249;                                                     247P    321
123,0.0D0,0.0D0,1.0D0;                                               249P    322
110,-.75D0,-.5D0,.25D0,-.75D0,.5D0,.25D0;                            251P    323
110,-.75D0,.5D0,0.0D0,-.75D0,.5D0,.25D0;                             253P    324
110,-.75D0,-.5D0,0.0D0,-.75D0,.5D0,0.0D0;                            255P    325
508,4,0,9,44,1,0,0,9,45,0,0,0,9,46,0,0,0,9,42,1,0;                   257P    326
510,247,1,1,257;                                                     259P    327
116,-.75D0,.5D0,0.0D0,0;                                             261P    328
123,0.0D0,1.0D0,0.0D0;                                               263P    329
190,261,263,267;                                                     265P    330
123,0.0D0,0.0D0,1.0D0;                                               267P    331
110,-.75D0,.5D0,.25D0,.75D0,.5D0,.25D0;                              269P    332
110,-.75D0,.5D0,0.0D0,.75D0,.5D0,0.0D0;                              271P    333
508,4,0,9,47,1,0,0,9,40,0,0,0,9,48,0,0,0,9,45,1,0;                   273P    334
510,265,1,1,273;                                                     275P    335
116,4.37095678986282D-17,2.0106401233369D-16,.25D0,0;                277P    336
123,0.0D0,0.0D0,1.0D0;                                               279P    337
190,277,279,283;                                                     281P    338
123,1.0D0,0.0D0,0.0D0;                                               283P    339
508,4,0,9,37,0,0,0,9,47,0,0,0,9,44,0,0,0,9,41,0,0;                   285P    340
508,2,0,9,28,1,0,0,9,20,1,0;                                         287P    341
508,2,0,9,30,1,0,0,9,16,1,0;                                         289P    342
508,2,0,9,32,1,0,0,9,12,1,0;                                         291P    343
508,2,0,9,34,1,0,0,9,8,1,0;                                          293P    344
508,2,0,9,36,1,0,0,9,4,1,0;                                          295P    345
510,281,6,1,285,287,289,291,293,295;                                 297P    346
116,6.55643518479423D-17,2.46760378773165D-16,0.0D0,0;               299P    347
123,0.0D0,0.0D0,-1.0D0;                                              301P    348
190,299,301,305;                                                     303P    349
123,-1.0D0,0.0D0,0.0D0;                                              305P    350
508,4,0,9,48,1,0,0,9,39,1,0,0,9,43,1,0,0,9,46,1,0;                   307P    351
508,2,0,9,22,1,0,0,9,26,1,0;                                         309P    352
508,2,0,9,29,1,0,0,9,18,1,0;                                         311P    353
508,2,0,9,31,1,0,0,9,14,1,0;                                         313P    354
508,2,0,9,33,1,0,0,9,10,1,0;                                         315P    355
508,2,0,9,35,1,0,0,9,6,1,0;                                          317P    356
510,303,6,1,307,309,311,313,315,317;                                 319P    357
514,19,27,1,45,1,63,1,81,1,99,1,121,1,135,1,151,1,161,1,171,1,       321P    358
181,1,191,1,203,1,223,1,241,1,259,1,275,1,297,1,319,1;               321P    359
186,321,1,0;                                                         323P    360
314,75.2941012382507D0,75.2941012382507D0,75.2941012382507D0,;       325P    361
S      1G      4D    326P    361                                        T      1
